<svg xmlns="http://www.w3.org/2000/svg" viewBox="16.5 16.5 864.0 602.0" fill="none" shape-rendering="geometricPrecision">
  <!-- Series icon traced from your image. Set color via CSS: color: #fff; -->
  <path d="M828.0 537.5L814.0 537.5L813.0 536.5L804.0 536.5L803.0 535.5L799.0 535.5L793.0 533.5L779.0 533.5L778.0 532.5L769.0 532.5L768.0 531.5L759.0 530.5L758.0 529.5L738.0 528.5L737.0 527.5L732.0 527.5L722.0 524.5L707.0 523.5L704.5 522.0L703.5 519.0L703.5 477.0L707.0 473.5L724.0 474.5L725.0 475.5L735.0 475.5L736.0 476.5L744.0 476.5L745.0 477.5L754.0 477.5L755.0 478.5L762.0 478.5L763.0 479.5L769.0 479.5L770.0 480.5L778.0 480.5L779.0 481.5L786.0 481.5L793.0 483.5L800.0 483.5L806.0 485.5L815.0 485.5L818.0 484.5L824.5 477.0L824.5 261.0L823.5 260.0L824.5 188.0L817.0 179.5L814.0 178.5L788.0 179.5L787.0 180.5L761.0 180.5L760.0 181.5L745.0 181.5L744.0 182.5L707.0 182.5L703.5 178.0L703.5 139.0L706.0 134.5L745.0 133.5L746.0 132.5L757.0 132.5L758.0 131.5L766.0 131.5L767.0 130.5L773.0 130.5L774.0 129.5L784.0 129.5L785.0 128.5L795.0 128.5L796.0 127.5L806.0 127.5L807.0 126.5L829.0 126.5L830.0 127.5L847.0 130.5L859.0 137.5L874.5 154.0L878.5 165.0L879.5 173.0L880.5 174.0L880.5 487.0L879.5 488.0L878.5 497.0L873.5 509.0L869.5 514.0L868.5 517.0L867.0 517.5L862.0 523.5L848.0 532.5L840.0 533.5L828.0 537.5Z" fill="currentColor"/>
  <path d="M622.0 578.5L604.0 578.5L603.0 577.5L596.0 577.5L590.0 575.5L582.0 575.5L581.0 574.5L573.0 574.5L572.0 573.5L560.0 573.5L555.0 571.5L543.0 570.5L542.0 569.5L519.0 568.5L518.0 567.5L512.0 567.5L511.0 566.5L507.0 566.5L501.0 564.5L485.0 564.5L479.5 560.0L479.5 517.0L484.0 512.5L495.0 513.5L496.0 514.5L504.0 514.5L505.0 515.5L524.0 516.5L525.0 517.5L530.0 517.5L537.0 519.5L558.0 521.5L559.0 522.5L566.0 522.5L567.0 523.5L584.0 524.5L585.0 525.5L595.0 526.5L596.0 527.5L603.0 527.5L611.0 524.5L615.5 520.0L618.5 515.0L618.5 133.0L611.0 124.5L606.0 121.5L602.0 121.5L601.0 120.5L585.0 121.5L584.0 122.5L564.0 122.5L563.0 123.5L532.0 124.5L531.0 125.5L520.0 125.5L519.0 126.5L506.0 126.5L505.0 127.5L483.0 128.5L480.0 126.5L478.5 124.0L478.5 79.0L481.0 76.5L484.0 75.5L513.0 74.5L514.0 73.5L527.0 73.5L528.0 72.5L567.0 70.5L568.0 69.5L585.0 69.5L586.0 68.5L597.0 68.5L598.0 67.5L625.0 67.5L633.0 71.5L636.0 71.5L641.0 73.5L657.5 86.0L667.5 98.0L667.5 100.0L672.5 108.0L672.5 111.0L676.5 121.0L676.5 127.0L677.5 128.0L677.5 341.0L676.5 342.0L676.5 357.0L677.5 358.0L677.5 392.0L676.5 393.0L676.5 445.0L677.5 446.0L677.5 453.0L676.5 454.0L676.5 487.0L677.5 488.0L677.5 524.0L676.5 525.0L676.5 531.0L674.5 534.0L671.5 544.0L662.5 556.0L656.0 562.5L641.0 573.5L634.0 574.5L622.0 578.5Z" fill="currentColor"/>
  <path d="M394.0 618.5L374.0 618.5L373.0 617.5L363.0 616.5L357.0 614.5L341.0 613.5L340.0 612.5L330.0 612.5L329.0 611.5L325.0 611.5L324.0 610.5L320.0 610.5L314.0 608.5L298.0 607.5L297.0 606.5L290.0 606.5L289.0 605.5L284.0 605.5L283.0 604.5L278.0 604.5L271.0 602.5L248.0 600.5L247.0 599.5L243.0 599.5L242.0 598.5L238.0 598.5L232.0 596.5L227.0 596.5L226.0 595.5L215.0 595.5L214.0 594.5L201.0 593.5L200.0 592.5L196.0 592.5L190.0 590.5L171.0 589.5L170.0 588.5L164.0 588.5L155.0 585.5L148.0 585.5L147.0 584.5L135.0 584.5L134.0 583.5L122.0 582.5L118.0 580.5L113.0 580.5L112.0 579.5L87.0 578.5L73.0 574.5L61.0 573.5L47.0 567.5L38.0 561.5L25.5 546.0L20.5 535.0L20.5 532.0L17.5 523.0L17.5 518.0L16.5 517.0L16.5 414.0L17.5 413.0L17.5 350.0L16.5 349.0L16.5 310.0L17.5 309.0L17.5 292.0L16.5 291.0L16.5 83.0L20.5 69.0L23.5 65.0L25.5 59.0L30.5 52.0L41.0 42.5L47.0 39.5L49.0 39.5L51.0 37.5L58.0 36.5L62.0 34.5L65.0 34.5L66.0 33.5L78.0 33.5L79.0 32.5L107.0 32.5L108.0 31.5L137.0 30.5L138.0 29.5L159.0 28.5L160.0 27.5L214.0 26.5L215.0 25.5L231.0 25.5L232.0 24.5L242.0 24.5L243.0 23.5L253.0 23.5L254.0 22.5L284.0 22.5L285.0 21.5L304.0 21.5L305.0 20.5L320.0 20.5L321.0 19.5L339.0 19.5L340.0 18.5L351.0 18.5L352.0 17.5L389.0 16.5L390.0 17.5L396.0 17.5L402.0 20.5L409.0 21.5L416.0 24.5L418.0 26.5L420.0 26.5L434.0 36.5L445.5 51.0L445.5 53.0L450.5 62.0L450.5 65.0L453.5 74.0L453.5 78.0L454.5 79.0L454.5 112.0L453.5 113.0L453.5 301.0L452.5 302.0L452.5 341.0L453.5 342.0L453.5 373.0L452.5 374.0L453.5 375.0L453.5 389.0L452.5 390.0L452.5 396.0L453.5 397.0L452.5 398.0L452.5 405.0L453.5 406.0L453.5 421.0L452.5 422.0L452.5 429.0L453.5 430.0L453.5 437.0L452.5 438.0L452.5 441.0L453.5 442.0L453.5 563.0L449.5 577.0L447.5 579.0L446.5 583.0L439.5 593.0L431.0 601.5L414.0 612.5L405.0 615.5L401.0 615.5L394.0 618.5ZM377.5 564.0L384.0 561.5L392.5 553.0L395.5 547.0L395.5 86.0L394.5 83.0L392.5 80.0L383.0 71.5L380.0 70.5L357.0 70.5L356.0 71.5L332.0 71.5L331.0 72.5L261.0 73.5L260.0 74.5L258.0 73.5L257.0 74.5L233.0 74.5L232.0 75.5L192.0 76.5L191.0 77.5L162.0 77.5L161.0 78.5L84.0 80.5L83.0 81.5L78.0 81.5L74.0 83.5L68.5 88.0L63.5 95.0L63.5 113.0L64.5 114.0L64.5 156.0L63.5 157.0L63.5 161.0L64.5 162.0L64.5 165.0L63.5 166.0L63.5 229.0L64.5 230.0L64.5 512.0L65.5 515.0L76.0 526.5L83.0 529.5L104.0 530.5L105.0 531.5L110.0 531.5L114.0 533.5L147.0 535.5L148.0 536.5L154.0 536.5L161.0 538.5L169.0 538.5L170.0 539.5L183.0 539.5L184.0 540.5L191.0 540.5L192.0 541.5L197.0 541.5L198.0 542.5L209.0 543.5L210.0 544.5L230.0 545.5L231.0 546.5L237.0 546.5L238.0 547.5L250.0 548.5L251.0 549.5L275.0 550.5L276.0 551.5L281.0 551.5L282.0 552.5L291.0 553.5L292.0 554.5L302.0 554.5L303.0 555.5L310.0 555.5L311.0 556.5L319.0 556.5L320.0 557.5L324.0 557.5L330.0 559.5L351.0 560.5L352.0 561.5L358.0 561.5L359.0 562.5L363.0 562.5L369.0 564.5L377.5 564.0Z" fill="currentColor" fill-rule="evenodd"/>
</svg>