<svg xmlns="http://www.w3.org/2000/svg" viewBox="0 0 100 100" role="img" aria-label="wavve logo">
  <rect width="100" height="100" fill="#1550F5" />
  <path
    fill="#F4F4F4"
    d="M17 17h18c-1.7 8.7-1.8 19.1.2 30.3 2 11.1 6.6 22.8 13.8 35.7H31.4C18.7 67.9 12 48.7 12 29.3c0-4.9 1-9 2.2-12.3H17z"
  />
  <path
    fill="#F4F4F4"
    d="M45.3 30h15.1c-2 8.7-1.8 18.8.7 30.4l3.1 13.3H57c-2.5-6.4-4.6-12.7-6.1-18.9-3.5 8.1-5.1 17.5-4.6 28.2H38c-2-19.4.4-37.1 7.3-53z"
  />
  <path
    fill="#F4F4F4"
    d="M70.1 40.8H88c-8.1 11.2-12.3 25.3-11.7 42.2H64.5c-1.1-17.5.9-31.6 5.6-42.2z"
  />
</svg>
