<svg xmlns="http://www.w3.org/2000/svg" width="2816" height="1536" viewBox="0 0 2816 1536" preserveAspectRatio="xMidYMid meet">
  <g transform="translate(0,1536) scale(0.1,-0.1)" fill="#FFFFFF" stroke="none">
    <path d="M2000 2000 L4000 2000 L4000 12000 L11000 12000 L11000 14000 L2000 14000 Z M4000 8000 L10000 8000 L10000 10000 L4000 10000 Z M4000 2000 L11000 2000 L11000 4000 L4000 4000 Z" />
    <path d="M14000 2000 L16000 2000 L24000 12000 L24000 2000 L26000 2000 L26000 14000 L24000 14000 L16000 4000 L16000 14000 L14000 14000 Z" />
    <path d="M12000 6500 L13000 6500 L13000 7500 L12000 7500 Z" />
  </g>
</svg>
