<svg xmlns="http://www.w3.org/2000/svg" viewBox="0 0 228 44" role="img" aria-label="Ending Signal logo">
  <defs>
    <linearGradient id="signalGrad" x1="4" y1="4" x2="40" y2="40" gradientUnits="userSpaceOnUse">
      <stop offset="0" stop-color="#67E8F9" />
      <stop offset="1" stop-color="#36D399" />
    </linearGradient>
    <linearGradient id="wordGrad" x1="52" y1="8" x2="184" y2="38" gradientUnits="userSpaceOnUse">
      <stop offset="0" stop-color="#F0F7FF" />
      <stop offset="1" stop-color="#CDE2FF" />
    </linearGradient>
  </defs>
  <rect x="2" y="2" width="40" height="40" rx="12" fill="#0A1A2E" stroke="#8FB7E8" stroke-opacity="0.45" />
  <path d="M10 30h4v-9h-4v9zm7 0h4V15h-4v15zm7 0h4v-6h-4v6zm7 0h4V12h-4v18z" fill="url(#signalGrad)" />
  <path d="M52 31V12h4.7c2.5 0 4.2 1.4 4.2 3.8 0 1.8-1 2.9-2.5 3.4l2.9 5.7h-3.2l-2.5-5.1h-1V31H52zm2.8-7h1.5c1.1 0 1.9-.6 1.9-1.8 0-1.1-.7-1.8-1.9-1.8h-1.5V24z" fill="url(#wordGrad)" />
  <path d="M65.6 31V16h2.9v15h-2.9zm1.5-18a1.9 1.9 0 0 1 0-3.8 1.9 1.9 0 1 1 0 3.8z" fill="#D9E9FF" />
  <path d="M72.2 31V16h2.8v1.4c1-1.1 2.1-1.7 3.6-1.7 2.7 0 4.2 1.8 4.2 4.8V31h-2.9V21c0-1.7-.8-2.6-2.2-2.6s-2.6 1.1-2.6 2.8V31h-2.9z" fill="#D9E9FF" />
  <path d="M86.5 31V16h2.8v1.8c1-1.4 2.4-2.1 4.1-2.1 3.2 0 5.3 2.5 5.3 6.2s-2.2 6.3-5.5 6.3c-1.6 0-2.8-.6-3.8-1.6V31h-2.9zm2.9-9.2c0 2.3 1.3 3.8 3.2 3.8s3.2-1.6 3.2-3.8-1.3-3.7-3.2-3.7-3.2 1.5-3.2 3.7z" fill="#D9E9FF" />
  <path d="M101.7 31V16h2.9v2.4c.9-1.8 2.2-2.7 4.2-2.7h.4v3h-.6c-2.4 0-3.9 1.4-3.9 4.2V31h-3z" fill="#D9E9FF" />
  <path d="M111.2 23.6c0-4.5 2.8-7.4 7-7.4 2 0 3.6.6 4.9 1.9l-1.7 2.1c-.9-.8-1.9-1.3-3.1-1.3-2.4 0-3.9 1.8-3.9 4.7s1.6 4.7 4 4.7c1.2 0 2.3-.5 3.3-1.4l1.7 2.1a7.1 7.1 0 0 1-5.1 2c-4.3 0-7.1-2.9-7.1-7.4z" fill="#D9E9FF" />
  <path d="M126.2 31V16h2.9v15h-2.9zm1.5-18a1.9 1.9 0 0 1 0-3.8 1.9 1.9 0 1 1 0 3.8z" fill="#D9E9FF" />
  <path d="M133 31V16h2.8v1.4c1-1.1 2.1-1.7 3.6-1.7 2.7 0 4.2 1.8 4.2 4.8V31h-2.9V21c0-1.7-.8-2.6-2.2-2.6s-2.6 1.1-2.6 2.8V31H133z" fill="#D9E9FF" />
  <path d="M147.4 31V16h2.9v15h-2.9zm1.5-18a1.9 1.9 0 0 1 0-3.8 1.9 1.9 0 1 1 0 3.8z" fill="#D9E9FF" />
  <path d="M153.8 23.6c0-4.5 2.8-7.4 7-7.4 2 0 3.6.6 4.9 1.9l-1.7 2.1c-.9-.8-1.9-1.3-3.1-1.3-2.4 0-3.9 1.8-3.9 4.7s1.6 4.7 4 4.7c1.2 0 2.3-.5 3.3-1.4l1.7 2.1a7.1 7.1 0 0 1-5.1 2c-4.3 0-7.1-2.9-7.1-7.4z" fill="#D9E9FF" />
  <circle cx="219.5" cy="22" r="3.4" fill="#67E8F9" />
</svg>
