<svg xmlns="http://www.w3.org/2000/svg" width="24" height="24" viewBox="0 0 24 24">
  <path d="M 65.56 15.94 L 64.62 15.88 L 62.69 16.12 L 60.25 16.88 L 58.69 17.06 L 56.31 18.00 L 51.81 19.06 L 48.19 20.75 L 46.75 21.19 L 44.94 22.12 L 44.19 22.75 L 41.56 24.00 L 40.56 24.88 L 38.56 26.00 L 35.50 29.38 L 35.06 30.44 L 34.19 31.69 L 33.75 33.00 L 33.31 33.38 L 32.88 33.00 L 32.81 31.56 L 33.12 30.25 L 33.56 29.56 L 33.44 29.06 L 32.00 30.00 L 30.44 31.50 L 28.25 34.81 L 26.38 39.69 L 26.12 40.69 L 25.81 44.12 L 26.00 52.00 L 25.81 53.94 L 24.81 56.31 L 24.19 57.00 L 21.31 61.75 L 21.25 62.50 L 21.81 63.19 L 22.62 63.44 L 23.56 62.75 L 24.12 61.69 L 24.81 60.88 L 25.94 58.69 L 26.81 57.56 L 28.25 55.00 L 31.06 50.69 L 34.56 46.38 L 35.81 44.56 L 36.81 43.62 L 39.12 40.75 L 42.00 37.81 L 44.19 35.81 L 46.88 33.75 L 47.75 33.56 L 48.06 33.94 L 47.94 34.75 L 44.75 37.50 L 37.94 44.56 L 36.88 46.12 L 33.31 50.38 L 32.94 51.25 L 31.06 53.81 L 30.19 55.44 L 30.25 56.38 L 30.81 56.69 L 34.56 56.69 L 36.44 56.50 L 40.31 55.69 L 41.50 55.00 L 45.00 53.69 L 49.44 50.94 L 53.81 46.81 L 53.94 46.44 L 53.44 46.06 L 51.56 46.25 L 49.56 46.94 L 48.06 46.88 L 47.62 46.44 L 48.06 46.12 L 49.69 45.75 L 50.75 45.06 L 53.06 44.44 L 56.19 42.44 L 57.81 40.88 L 60.69 36.56 L 61.81 33.75 L 62.81 32.12 L 63.69 29.06 L 64.12 26.75 L 64.81 25.12 L 65.81 19.38 L 66.00 16.56 Z" fill="#FFFFFF" transform="translate(-6.3443 -4.6754) scale(0.420499)"/>
</svg>
