<svg xmlns="http://www.w3.org/2000/svg" width="24" height="24" viewBox="0 0 24 24" fill="none">
  <path d="M 12.221 2.135 L 12.074 2.282 L 11.926 2.282 L 11.779 2.282 L 11.632 2.282 L 11.485 2.282 L 11.337 2.282 L 11.190 2.282 L 11.043 2.282 L 10.896 2.282 L 10.748 2.282 L 10.601 2.282 L 10.454 2.282 L 10.307 2.282 L 10.160 2.282 L 10.012 2.282 L 9.865 2.282 L 9.718 2.429 L 9.571 2.429 L 9.423 2.429 L 9.276 2.429 L 9.129 2.429 L 8.982 2.429 L 8.834 2.429 L 8.687 2.429 L 8.540 2.429 L 8.393 2.429 L 8.245 2.429 L 8.098 2.429 L 7.951 2.429 L 7.804 2.577 L 7.656 2.577 L 7.509 2.577 L 7.362 2.577 L 7.215 2.577 L 7.067 2.577 L 6.920 2.577 L 6.773 2.577 L 6.626 2.724 L 6.479 2.724 L 6.331 2.724 L 6.184 2.724 L 6.037 2.724 L 5.890 2.724 L 5.742 2.871 L 5.595 2.871 L 5.448 2.871 L 5.301 2.871 L 5.153 2.871 L 5.006 3.018 L 4.859 3.018 L 4.712 3.018 L 4.564 3.018 L 4.417 3.166 L 4.270 3.166 L 4.123 3.166 L 3.975 3.166 L 3.828 3.166 L 3.681 3.313 L 3.534 3.313 L 3.387 3.313 L 3.239 3.460 L 3.092 3.460 L 2.945 3.460 L 2.798 3.607 L 2.650 3.607 L 2.503 3.755 L 2.356 3.755 L 2.209 3.755 L 2.061 3.902 L 1.914 3.902 L 1.767 4.049 L 1.620 4.049 L 1.472 4.196 L 1.325 4.344 L 1.325 4.491 L 1.178 4.638 L 1.031 4.785 L 0.883 4.933 L 0.883 5.080 L 0.883 5.227 L 0.736 5.374 L 0.736 5.521 L 0.736 5.669 L 0.589 5.816 L 0.589 5.963 L 0.589 6.110 L 0.589 6.258 L 0.442 6.405 L 0.442 6.552 L 0.442 6.699 L 0.442 6.847 L 0.442 6.994 L 0.442 7.141 L 0.294 7.288 L 0.294 7.436 L 0.294 7.583 L 0.294 7.730 L 0.294 7.877 L 0.147 8.025 L 0.147 8.172 L 0.147 8.319 L 0.147 8.466 L 0.147 8.613 L 0.147 8.761 L 0.147 8.908 L 0.147 9.055 L 0.147 9.202 L 0.147 9.350 L 0.147 9.497 L 0.147 9.644 L 0.000 9.791 L 0.000 9.939 L 0.000 10.086 L 0.000 10.233 L 0.000 10.380 L 0.000 10.528 L 0.000 10.675 L 0.000 10.822 L 0.000 10.969 L 0.000 11.117 L 0.000 11.264 L 0.000 11.411 L 0.000 11.558 L 0.000 11.706 L 0.000 11.853 L 0.000 12.000 L 0.000 12.147 L 0.000 12.294 L 0.000 12.442 L 0.000 12.589 L 0.000 12.736 L 0.000 12.883 L 0.000 13.031 L 0.000 13.178 L 0.000 13.325 L 0.000 13.472 L 0.000 13.620 L 0.000 13.767 L 0.000 13.914 L 0.000 14.061 L 0.000 14.209 L 0.000 14.356 L 0.000 14.503 L 0.000 14.650 L 0.000 14.798 L 0.000 14.945 L 0.000 15.092 L 0.147 15.239 L 0.147 15.387 L 0.147 15.534 L 0.147 15.681 L 0.147 15.828 L 0.147 15.975 L 0.147 16.123 L 0.147 16.270 L 0.294 16.417 L 0.294 16.564 L 0.294 16.712 L 0.294 16.859 L 0.294 17.006 L 0.294 17.153 L 0.294 17.301 L 0.442 17.448 L 0.442 17.595 L 0.442 17.742 L 0.589 17.890 L 0.736 18.037 L 0.883 18.184 L 1.031 18.331 L 1.178 18.479 L 1.325 18.479 L 1.472 18.626 L 1.620 18.626 L 1.767 18.773 L 1.914 18.773 L 2.061 18.773 L 2.209 18.773 L 2.356 18.920 L 2.503 18.920 L 2.650 18.920 L 2.798 18.920 L 2.945 18.920 L 3.092 18.920 L 3.239 18.920 L 3.387 18.920 L 3.534 18.920 L 3.681 18.920 L 3.828 18.920 L 3.975 18.920 L 4.123 18.920 L 4.270 18.920 L 4.417 18.920 L 4.564 18.920 L 4.712 18.920 L 4.859 18.920 L 5.006 18.920 L 5.153 18.920 L 5.301 18.920 L 5.448 19.067 L 5.595 19.067 L 5.742 19.067 L 5.890 19.067 L 6.037 19.067 L 6.184 19.067 L 6.331 19.067 L 6.479 19.067 L 6.626 19.067 L 6.773 19.067 L 6.920 19.067 L 7.067 19.067 L 7.215 19.067 L 7.362 19.067 L 7.509 19.067 L 7.656 19.067 L 7.804 19.067 L 7.951 19.067 L 8.098 19.067 L 8.245 19.067 L 8.393 19.067 L 8.540 19.067 L 8.687 19.067 L 8.834 19.067 L 8.982 19.067 L 9.129 19.067 L 9.276 19.067 L 9.423 19.067 L 9.571 19.067 L 9.718 19.067 L 9.865 19.067 L 10.012 19.067 L 10.160 19.215 L 10.160 19.362 L 10.160 19.509 L 10.160 19.656 L 10.160 19.804 L 10.012 19.951 L 10.012 20.098 L 10.012 20.245 L 10.012 20.393 L 10.012 20.540 L 10.012 20.687 L 10.012 20.834 L 10.012 20.982 L 10.012 21.129 L 10.012 21.276 L 10.012 21.423 L 9.865 21.571 L 9.865 21.718 L 9.865 21.865 L 10.012 21.865 L 10.160 21.865 L 10.307 21.718 L 10.454 21.571 L 10.601 21.423 L 10.748 21.423 L 10.896 21.276 L 11.043 21.129 L 11.190 21.129 L 11.337 20.982 L 11.485 20.834 L 11.632 20.687 L 11.779 20.687 L 11.926 20.540 L 12.074 20.393 L 12.221 20.393 L 12.368 20.245 L 12.515 20.098 L 12.663 20.098 L 12.810 19.951 L 12.957 19.804 L 13.104 19.656 L 13.252 19.656 L 13.399 19.509 L 13.546 19.362 L 13.693 19.215 L 13.840 19.067 L 13.988 19.067 L 14.135 18.920 L 14.282 18.920 L 14.429 18.920 L 14.577 18.920 L 14.724 18.920 L 14.871 18.920 L 15.018 18.920 L 15.166 18.920 L 15.313 18.920 L 15.460 18.920 L 15.607 18.920 L 15.755 18.920 L 15.902 18.920 L 16.049 18.920 L 16.196 18.920 L 16.344 18.773 L 16.491 18.773 L 16.638 18.773 L 16.785 18.773 L 16.933 18.773 L 17.080 18.773 L 17.227 18.773 L 17.374 18.773 L 17.521 18.773 L 17.669 18.626 L 17.816 18.626 L 17.963 18.626 L 18.110 18.626 L 18.258 18.626 L 18.405 18.626 L 18.552 18.626 L 18.699 18.479 L 18.847 18.479 L 18.994 18.479 L 19.141 18.479 L 19.288 18.479 L 19.436 18.479 L 19.583 18.331 L 19.730 18.331 L 19.877 18.331 L 20.025 18.331 L 20.172 18.331 L 20.319 18.331 L 20.466 18.184 L 20.613 18.184 L 20.761 18.184 L 20.908 18.184 L 21.055 18.037 L 21.202 18.037 L 21.350 18.037 L 21.497 17.890 L 21.644 17.890 L 21.791 17.890 L 21.939 17.742 L 22.086 17.742 L 22.233 17.742 L 22.380 17.595 L 22.528 17.595 L 22.675 17.448 L 22.822 17.301 L 22.969 17.301 L 23.117 17.153 L 23.117 17.006 L 23.264 16.859 L 23.264 16.712 L 23.411 16.564 L 23.411 16.417 L 23.558 16.270 L 23.558 16.123 L 23.558 15.975 L 23.706 15.828 L 23.706 15.681 L 23.706 15.534 L 23.706 15.387 L 23.706 15.239 L 23.706 15.092 L 23.853 14.945 L 23.853 14.798 L 23.853 14.650 L 23.853 14.503 L 23.853 14.356 L 23.853 14.209 L 23.853 14.061 L 23.853 13.914 L 23.853 13.767 L 23.853 13.620 L 24.000 13.472 L 24.000 13.325 L 24.000 13.178 L 24.000 13.031 L 24.000 12.883 L 24.000 12.736 L 24.000 12.589 L 24.000 12.442 L 24.000 12.294 L 24.000 12.147 L 24.000 12.000 L 24.000 11.853 L 24.000 11.706 L 24.000 11.558 L 24.000 11.411 L 24.000 11.264 L 24.000 11.117 L 24.000 10.969 L 24.000 10.822 L 24.000 10.675 L 24.000 10.528 L 24.000 10.380 L 24.000 10.233 L 24.000 10.086 L 24.000 9.939 L 24.000 9.791 L 24.000 9.644 L 24.000 9.497 L 24.000 9.350 L 24.000 9.202 L 24.000 9.055 L 24.000 8.908 L 24.000 8.761 L 24.000 8.613 L 24.000 8.466 L 24.000 8.319 L 23.853 8.172 L 23.853 8.025 L 23.853 7.877 L 23.853 7.730 L 23.853 7.583 L 23.853 7.436 L 23.853 7.288 L 23.853 7.141 L 23.853 6.994 L 23.853 6.847 L 23.853 6.699 L 23.706 6.552 L 23.706 6.405 L 23.706 6.258 L 23.706 6.110 L 23.706 5.963 L 23.706 5.816 L 23.706 5.669 L 23.706 5.521 L 23.706 5.374 L 23.558 5.227 L 23.558 5.080 L 23.558 4.933 L 23.558 4.785 L 23.558 4.638 L 23.411 4.491 L 23.411 4.344 L 23.264 4.196 L 23.264 4.049 L 23.117 3.902 L 23.117 3.755 L 22.969 3.607 L 22.969 3.460 L 22.822 3.313 L 22.675 3.166 L 22.675 3.018 L 22.528 2.871 L 22.380 2.871 L 22.233 2.724 L 22.086 2.577 L 21.939 2.577 L 21.791 2.577 L 21.644 2.429 L 21.497 2.429 L 21.350 2.429 L 21.202 2.429 L 21.055 2.429 L 20.908 2.429 L 20.761 2.429 L 20.613 2.282 L 20.466 2.282 L 20.319 2.282 L 20.172 2.282 L 20.025 2.282 L 19.877 2.282 L 19.730 2.282 L 19.583 2.282 L 19.436 2.282 L 19.288 2.282 L 19.141 2.282 L 18.994 2.282 L 18.847 2.282 L 18.699 2.282 L 18.552 2.282 L 18.405 2.282 L 18.258 2.135 L 18.110 2.135 L 17.963 2.135 L 17.816 2.135 L 17.669 2.135 L 17.521 2.135 L 17.374 2.135 L 17.227 2.135 L 17.080 2.135 L 16.933 2.135 L 16.785 2.135 L 16.638 2.135 L 16.491 2.135 L 16.344 2.135 L 16.196 2.135 L 16.049 2.135 L 15.902 2.135 L 15.755 2.135 L 15.607 2.135 L 15.460 2.135 L 15.313 2.135 L 15.166 2.135 L 15.018 2.135 L 14.871 2.135 L 14.724 2.135 L 14.577 2.135 L 14.429 2.135 L 14.282 2.135 L 14.135 2.135 L 13.988 2.135 L 13.840 2.135 L 13.693 2.135 L 13.546 2.135 L 13.399 2.135 L 13.252 2.135 L 13.104 2.135 L 12.957 2.135 L 12.810 2.135 L 12.663 2.135 L 12.515 2.135 L 12.368 2.135 Z" fill="currentColor"/>
</svg>
